<svg width="72" height="63" viewBox="0 0 72 63" fill="none" xmlns="http://www.w3.org/2000/svg">
<path fill-rule="evenodd" clip-rule="evenodd" d="M21.9371 33.75C21.9371 25.9835 28.2331 19.6875 35.9996 19.6875C43.7661 19.6875 50.0621 25.9835 50.0621 33.75C50.0621 41.5165 43.7661 47.8125 35.9996 47.8125C28.2331 47.8125 21.9371 41.5165 21.9371 33.75ZM35.9996 25.3125C31.3397 25.3125 27.5621 29.0901 27.5621 33.75C27.5621 38.4099 31.3397 42.1875 35.9996 42.1875C40.6595 42.1875 44.4371 38.4099 44.4371 33.75C44.4371 29.0901 40.6595 25.3125 35.9996 25.3125Z" fill="black"/>
<path fill-rule="evenodd" clip-rule="evenodd" d="M30.8101 6.5625C26.8908 6.5625 23.7135 9.73979 23.7135 13.6592C23.7135 16.1565 21.7964 18.2356 19.3072 18.4378L10.9462 19.1168C9.30457 19.2501 7.95446 20.4641 7.64805 22.0824C5.96527 30.9699 5.83979 40.0823 7.27722 49.0128L7.64191 51.2785C7.98633 53.4183 9.74746 55.0462 11.9077 55.2217L19.1914 55.8132C30.3785 56.7217 41.6208 56.7217 52.8079 55.8132L60.0916 55.2217C62.2518 55.0462 64.013 53.4183 64.3574 51.2785L64.7221 49.0127C66.1595 40.0823 66.034 30.9699 64.3512 22.0824C64.0448 20.4641 62.6947 19.2501 61.0531 19.1168L52.6921 18.4378C50.2029 18.2356 48.2858 16.1565 48.2858 13.6592C48.2858 9.7398 45.1085 6.5625 41.1891 6.5625H30.8101ZM18.1112 12.8914C18.5082 6.22289 24.0419 0.9375 30.8101 0.9375H41.1891C47.9573 0.9375 53.4911 6.22289 53.888 12.8914L61.5084 13.5103C65.6743 13.8486 69.1005 16.9292 69.878 21.0359C71.6821 30.5638 71.8166 40.3327 70.2756 49.9066L69.9109 52.1724C69.1548 56.8695 65.2889 60.4431 60.5469 60.8282L53.2632 61.4197C41.7731 62.3529 30.2262 62.3529 18.7361 61.4197L11.4523 60.8282C6.71036 60.4431 2.84443 56.8695 2.08839 52.1724L1.7237 49.9066C0.182703 40.3327 0.317219 30.5638 2.12125 21.0359C2.89882 16.9292 6.32495 13.8486 10.4909 13.5103L18.1112 12.8914Z" fill="black"/>
</svg>
