<svg width="42" height="42" viewBox="0 0 42 42" fill="none" xmlns="http://www.w3.org/2000/svg">
<path d="M9.98717 9.98744C10.6706 9.30402 11.7786 9.30402 12.462 9.98744L22.4 19.9254L19.9252 22.4003L9.98717 12.4623C9.30376 11.7789 9.30375 10.6709 9.98717 9.98744Z" fill="#EBE6E1"/>
<path d="M19.25 20.25C19.25 19.6977 19.6977 19.25 20.25 19.25H21.75C22.3023 19.25 22.75 19.6977 22.75 20.25V21.75C22.75 22.3023 22.3023 22.75 21.75 22.75H20.25C19.6977 22.75 19.25 22.3023 19.25 21.75V20.25Z" fill="#EBE6E1"/>
<path d="M9.98744 32.1369C9.30402 31.4534 9.30402 30.3454 9.98744 29.662L19.7585 19.8909L22.2334 22.3657L12.4623 32.1369C11.7789 32.8203 10.6709 32.8203 9.98744 32.1369Z" fill="#EBE6E1"/>
<path d="M19.9961 19.6533L29.6618 9.98757C30.3453 9.30416 31.4533 9.30416 32.1367 9.98757C32.8201 10.671 32.8201 11.779 32.1367 12.4624L22.471 22.1282L19.9961 19.6533Z" fill="#EBE6E1"/>
<path d="M22.3945 19.9194L32.137 29.6619C32.8204 30.3453 32.8204 31.4533 32.137 32.1367C31.4535 32.8202 30.3455 32.8202 29.6621 32.1367L19.9197 22.3943L22.3945 19.9194Z" fill="#EBE6E1"/>
</svg>
