<svg width="42" height="42" viewBox="0 0 42 42" fill="none" xmlns="http://www.w3.org/2000/svg">
<path d="M25.5575 4.83123C22.8614 4.52436 20.1392 4.52436 17.4432 4.83123L14.6514 5.14899C14.2384 5.196 13.9155 5.52703 13.8788 5.94103L13.6642 8.35914C13.3034 12.4248 13.3034 16.5144 13.6642 20.5801L13.8788 22.9982C13.9188 23.4497 14.2971 23.7958 14.7503 23.7958H18.3753V36.7501C18.3753 37.1218 18.6102 37.453 18.961 37.5759C19.3118 37.6988 19.702 37.5866 19.934 37.2962L20.6177 36.4401C24.6942 31.3363 27.9402 25.6215 30.2362 19.5063L30.5695 18.6186C30.6704 18.3499 30.6331 18.0488 30.4696 17.8128C30.3062 17.5768 30.0374 17.4361 29.7503 17.4361H25.0024L29.072 6.31917C29.1642 6.06721 29.1358 5.78687 28.9948 5.55859C28.8538 5.33031 28.6159 5.17934 28.3493 5.14899L25.5575 4.83123Z" fill="#FFFFFF"/>
</svg>
