<svg width="72" height="58" viewBox="0 0 72 58" fill="none" xmlns="http://www.w3.org/2000/svg">
<path d="M43.5002 17.75C43.5002 14.6434 46.0186 12.125 49.1252 12.125C52.2318 12.125 54.7502 14.6434 54.7502 17.75C54.7502 20.8566 52.2318 23.375 49.1252 23.375C46.0186 23.375 43.5002 20.8566 43.5002 17.75Z" fill="black"/>
<path fill-rule="evenodd" clip-rule="evenodd" d="M18.2534 1.4696C30.0623 0.443076 41.9381 0.443075 53.747 1.4696L59.4104 1.96191C64.8294 2.43297 69.2194 6.55664 70.0282 11.9356C71.7294 23.2483 71.7294 34.7517 70.0282 46.0644C69.2194 51.4434 64.8294 55.5671 59.4104 56.0381L53.747 56.5304C41.9381 57.557 30.0623 57.557 18.2534 56.5304L12.59 56.0381C7.17104 55.5671 2.78102 51.4434 1.97215 46.0644C0.271 34.7517 0.271 23.2483 1.97215 11.9356C2.78102 6.55664 7.17103 2.43297 12.59 1.96191L18.2534 1.4696ZM53.2598 7.07347C41.7751 6.07512 30.2253 6.07512 18.7405 7.07347L13.0772 7.56578C10.2484 7.81167 7.95684 9.96424 7.53462 12.7721C6.56885 19.1944 6.17962 25.6814 6.36693 32.1558L20.8864 17.6363C21.4341 17.0886 22.1835 16.791 22.9578 16.8137C23.732 16.8365 24.4626 17.1776 24.9772 17.7565L38.7451 33.2454L48.2358 30.0819C49.2971 29.7281 50.4672 30.037 51.2157 30.8686L64.4124 45.5316C64.4326 45.4313 64.4504 45.3301 64.4658 45.228C66.0836 34.4698 66.0836 23.5302 64.4658 12.7721C64.0436 9.96424 61.752 7.81167 58.9232 7.56578L53.2598 7.07347ZM60.8258 49.955L48.2669 36.0007L38.7645 39.1682C37.6972 39.524 36.5205 39.2094 35.7731 38.3686L22.7547 23.7229L6.8409 39.6368C7.02384 41.5047 7.25507 43.369 7.53462 45.228C7.95684 48.0358 10.2484 50.1884 13.0772 50.4343L18.7405 50.9266C30.2253 51.9249 41.7751 51.9249 53.2599 50.9266L58.9232 50.4343C59.5935 50.376 60.2336 50.2107 60.8258 49.955Z" fill="black"/>
</svg>
