<svg width="19" height="18" viewBox="0 0 19 18" fill="none" xmlns="http://www.w3.org/2000/svg">
    <path
        d="M9.50195 17.2876C7.14445 17.2876 6.86654 17.2757 5.94654 17.2372C5.2291 17.2147 4.52095 17.0752 3.85258 16.8247C2.69617 16.3943 1.78175 15.5193 1.33216 14.413C1.08041 13.7713 0.944629 13.0934 0.93062 12.4082C0.876953 11.5301 0.876953 11.2422 0.876953 9.00464C0.876953 6.74322 0.889411 6.47922 0.93062 5.60381C0.944935 4.91953 1.08072 4.24256 1.33216 3.60181C1.78127 2.49404 2.69717 1.6183 3.85545 1.18914C4.52499 0.947324 5.23291 0.817104 5.94845 0.804139C6.86366 0.754639 7.16458 0.754639 9.50195 0.754639C11.8786 0.754639 12.1517 0.766555 13.0574 0.804139C13.7748 0.817216 14.4846 0.947423 15.1561 1.18914C16.3141 1.61878 17.2298 2.49436 17.6794 3.60181C17.9354 4.2519 18.0719 4.93945 18.0829 5.63406C18.1365 6.51222 18.1365 6.79914 18.1365 9.03581C18.1365 11.2725 18.1231 11.5658 18.0829 12.4339C18.0686 13.1197 17.9325 13.7983 17.6804 14.4405C17.2296 15.5475 16.3138 16.4228 15.1561 16.8531C14.4855 17.0935 13.7772 17.2233 13.0612 17.2372C12.146 17.2876 11.846 17.2876 9.50195 17.2876ZM9.46937 2.20572C7.12529 2.20572 6.88187 2.21672 5.96666 2.25614C5.4204 2.26306 4.87941 2.35948 4.3672 2.54122C3.61084 2.81806 3.01234 3.38821 2.71983 4.11056C2.52837 4.60583 2.42754 5.12895 2.42179 5.65697C2.37099 6.54522 2.37099 6.77806 2.37099 9.00464C2.37099 11.2046 2.37962 11.4714 2.42179 12.3541C2.43037 12.8768 2.53113 13.3944 2.71983 13.885C3.01277 14.6068 3.61117 15.1766 4.3672 15.4534C4.87906 15.6363 5.42027 15.7328 5.96666 15.7385C6.89433 15.7898 7.1387 15.7898 9.46937 15.7898C11.8202 15.7898 12.0636 15.7788 12.9711 15.7385C13.5178 15.7321 14.0592 15.6357 14.5715 15.4534C15.3233 15.1742 15.9179 14.6057 16.2103 13.8868C16.4014 13.3911 16.5022 12.8678 16.5083 12.3395H16.5189C16.5601 11.4631 16.5601 11.2294 16.5601 8.98997C16.5601 6.75056 16.5495 6.51497 16.5083 5.63956C16.4997 5.11747 16.399 4.60052 16.2103 4.11056C15.9186 3.39058 15.3239 2.82107 14.5715 2.54122C14.0593 2.35857 13.5178 2.26212 12.9711 2.25614C12.0444 2.20572 11.802 2.20572 9.46937 2.20572ZM9.50195 13.2387C7.70986 13.2398 6.09356 12.2081 5.40686 10.6248C4.72016 9.04147 5.09832 7.21836 6.36498 6.00573C7.63163 4.7931 9.53728 4.4298 11.1932 5.08528C12.8491 5.74075 13.9291 7.28588 13.9295 9.00006C13.9268 11.3385 11.9467 13.2342 9.50195 13.2387ZM9.50195 6.24822C7.91413 6.24822 6.62695 7.47944 6.62695 8.99822C6.62695 10.517 7.91413 11.7482 9.50195 11.7482C11.0898 11.7482 12.377 10.517 12.377 8.99822C12.3733 7.4809 11.0882 6.25175 9.50195 6.24822ZM14.102 5.59464C13.5322 5.59262 13.0717 5.14968 13.0727 4.60465C13.0738 4.05962 13.536 3.61831 14.1058 3.61831C14.6756 3.61831 15.1378 4.05961 15.1389 4.60464C15.1391 4.8676 15.0299 5.11983 14.8353 5.30559C14.6408 5.49136 14.3769 5.59537 14.102 5.59464Z"
        fill="#EBE6E1" fill-opacity="0.4" />
</svg>
