<svg width="19" height="19" viewBox="0 0 19 19" fill="none" xmlns="http://www.w3.org/2000/svg">
    <g clip-path="url(#clip0_119_21173)">
        <path
            d="M9.49953 0C5.53657 0 2.3125 3.22412 2.3125 7.18703C2.3125 8.82165 3.43924 11.212 5.66133 14.2917C7.26783 16.5182 8.84841 18.2774 8.91489 18.3512L9.49958 19.0001L10.0843 18.3512C10.1508 18.2774 11.7313 16.5182 13.3378 14.2917C15.5599 11.212 16.6867 8.8217 16.6867 7.18703C16.6866 3.22412 13.4625 0 9.49953 0ZM9.49953 16.6299C7.51978 14.3155 3.88652 9.57456 3.88652 7.18703C3.88652 4.09203 6.40448 1.57402 9.49953 1.57402C12.5946 1.57402 15.1125 4.09203 15.1125 7.18703C15.1126 9.57456 11.4793 14.3155 9.49953 16.6299Z"
            fill="#0A0A0A" />
        <path
            d="M9.49999 9.79491C10.94 9.79491 12.1074 8.62753 12.1074 7.18749C12.1074 5.74746 10.94 4.58008 9.49999 4.58008C8.05996 4.58008 6.89258 5.74746 6.89258 7.18749C6.89258 8.62753 8.05996 9.79491 9.49999 9.79491Z"
            fill="#0A0A0A" />
    </g>
    <defs>
        <clipPath id="clip0_119_21173">
            <rect width="19" height="19" fill="white" />
        </clipPath>
    </defs>
</svg>
