<svg width="19" height="17" viewBox="0 0 19 17" fill="none" xmlns="http://www.w3.org/2000/svg">
    <path
        d="M16.9229 0.747737C16.7022 0.763794 16.4855 0.815572 16.2814 0.90105H16.2787C16.0827 0.978737 15.1512 1.37061 13.7349 1.96461L8.65981 4.10205C5.01812 5.63517 1.43831 7.14492 1.43831 7.14492L1.48093 7.12842C1.48093 7.12842 1.23412 7.20955 0.976308 7.38624C0.817034 7.48759 0.679978 7.6202 0.573433 7.77605C0.446933 7.96167 0.345183 8.24561 0.382996 8.53917C0.444871 9.03555 0.766621 9.33324 0.997621 9.49755C1.23137 9.66392 1.45412 9.74161 1.45412 9.74161H1.45962L4.81668 10.8725C4.96725 11.3559 5.83968 14.2241 6.04937 14.8848C6.17312 15.2794 6.29343 15.5262 6.444 15.7146C6.51687 15.8109 6.60212 15.8913 6.70456 15.9559C6.75781 15.9869 6.81459 16.0114 6.87368 16.0288L6.83931 16.0205C6.84962 16.0233 6.85787 16.0315 6.86543 16.0343C6.89293 16.0419 6.9115 16.0446 6.94656 16.0501C7.478 16.211 7.90493 15.881 7.90493 15.881L7.929 15.8617L9.91106 14.057L13.2331 16.6056L13.3087 16.6379C14.001 16.9418 14.7022 16.7727 15.0728 16.4743C15.4461 16.1739 15.5912 15.7895 15.5912 15.7895L15.6152 15.7277L18.1824 2.57649C18.2552 2.25199 18.2738 1.94811 18.1934 1.65317C18.1104 1.35468 17.9189 1.09795 17.6564 0.933362C17.436 0.799379 17.1805 0.734708 16.9229 0.747737ZM16.8534 2.15711C16.8507 2.20042 16.8589 2.19561 16.8397 2.2788V2.28636L14.2966 15.3007C14.2856 15.3193 14.2671 15.3599 14.2162 15.4004C14.1626 15.443 14.1199 15.4699 13.8965 15.3812L9.83337 12.2661L7.379 14.5032L7.89462 11.2101L14.5331 5.02261C14.8067 4.76824 14.7153 4.71461 14.7153 4.71461C14.7346 4.40249 14.3021 4.62317 14.3021 4.62317L5.93112 9.80899L5.92837 9.79524L1.91612 8.4443V8.44155L1.90581 8.43949C1.91284 8.43715 1.91973 8.4344 1.92643 8.43124L1.94843 8.42024L1.96975 8.41267C1.96975 8.41267 5.55231 6.90292 9.194 5.3698C11.0172 4.60186 12.8542 3.82842 14.2671 3.23167C15.1049 2.87899 15.9437 2.52836 16.7833 2.1798C16.8397 2.1578 16.8129 2.1578 16.8534 2.1578V2.15711Z"
        fill="#EBE6E1" fill-opacity="0.4" />
</svg>
